<?xml version="1.0" encoding="UTF-8"?>
<svg version="1.1" xmlns="http://www.w3.org/2000/svg" width="512" height="513">
<path d="M0 0 C168.96 0 337.92 0 512 0 C512 169.29 512 338.58 512 513 C343.04 513 174.08 513 0 513 C0 343.71 0 174.42 0 0 Z " fill="#FEFEFE" transform="translate(0,0)"/>
<path d="M0 0 C168.96 0 337.92 0 512 0 C512 169.29 512 338.58 512 513 C343.04 513 174.08 513 0 513 C0 343.71 0 174.42 0 0 Z M98.078125 102.7265625 C94.18254888 106.9882642 90.59440299 111.48445072 87 116 C86.34257813 116.79019531 85.68515625 117.58039063 85.0078125 118.39453125 C49.26156197 161.67764183 33.53240714 219.84884244 38.49609375 275.3828125 C42.49359922 312.68684774 55.04754256 349.36775886 77 380 C77.42087891 380.59603027 77.84175781 381.19206055 78.27539062 381.80615234 C86.00564925 392.70205694 94.57881901 402.53563754 104 412 C104.53705566 412.54108398 105.07411133 413.08216797 105.62744141 413.63964844 C145.44784602 453.24657249 201.5312652 473.88041493 257.125 474.3125 C317.2571617 474.12135657 372.09063866 450.26559855 414.8125 408.4375 C419.90733121 403.23094004 424.51308743 397.73327717 429 392 C429.8330108 390.95807539 430.66635389 389.91641637 431.5 388.875 C466.85721565 344.31559132 481.7914528 286.5653982 476.23095703 230.31274414 C470.27427499 179.05994841 447.23116025 133.41010555 411 97 C410.48147461 96.47744629 409.96294922 95.95489258 409.42871094 95.41650391 C394.94071919 81.0071005 377.99345483 69.56126498 360 60 C359.27474121 59.61005859 358.54948242 59.22011719 357.80224609 58.81835938 C337.35684777 47.99405379 313.90686991 40.24327874 291 37 C290.23204102 36.88720703 289.46408203 36.77441406 288.67285156 36.65820312 C218.35694523 26.7923765 147.45659486 52.06791009 98.078125 102.7265625 Z " fill="#000000" transform="translate(0,0)"/>
<path d="M0 0 C30.51691661 -0.87036413 59.57199024 9.55168976 81.95703125 30.45703125 C84.86639228 33.26980216 87.70855218 36.08996429 90.3515625 39.15625 C90.3515625 39.81625 90.3515625 40.47625 90.3515625 41.15625 C92.87421494 39.59662694 95.39468572 38.03364923 97.9140625 36.46875 C98.97077148 35.81616211 98.97077148 35.81616211 100.04882812 35.15039062 C103.53571849 32.98112703 106.877178 30.7719314 110.12890625 28.26171875 C113.3515625 26.15625 113.3515625 26.15625 115.55297852 26.5246582 C116.14651123 26.7330835 116.74004395 26.94150879 117.3515625 27.15625 C117.01905021 30.02519897 116.54584266 30.99071336 114.31030273 32.89550781 C112.99848022 33.74387207 112.99848022 33.74387207 111.66015625 34.609375 C110.71591797 35.228125 109.77167969 35.846875 108.79882812 36.484375 C107.80560547 37.11859375 106.81238281 37.7528125 105.7890625 38.40625 C104.79197266 39.0559375 103.79488281 39.705625 102.76757812 40.375 C100.30214269 41.97930248 97.83017837 43.57241731 95.3515625 45.15625 C95.81699463 45.93299072 96.28242676 46.70973145 96.76196289 47.51000977 C113.79475428 76.08090013 121.4207535 106.16749855 113.3515625 139.15625 C106.50200498 164.88266863 91.50521534 188.03997099 69.3515625 203.15625 C72.19264638 205.05030592 74.69214501 206.16486292 77.859375 207.3984375 C78.92800781 207.82511719 79.99664062 208.25179687 81.09765625 208.69140625 C83.35435412 209.5862587 85.61482356 210.4716564 87.87890625 211.34765625 C88.94496094 211.77691406 90.01101563 212.20617187 91.109375 212.6484375 C92.0905127 213.03370605 93.07165039 213.41897461 94.08251953 213.81591797 C96.3515625 215.15625 96.3515625 215.15625 97.17919922 217.31298828 C97.26451904 218.22540283 97.26451904 218.22540283 97.3515625 219.15625 C94.45820297 220.37193599 93.2659503 220.12834503 90.22290039 219.13647461 C89.01883545 218.61577393 87.81477051 218.09507324 86.57421875 217.55859375 C85.2429607 216.99905822 83.91157656 216.43982262 82.58007812 215.88085938 C80.49293439 214.98882727 78.40839095 214.09128731 76.32641602 213.18725586 C74.31082023 212.31696612 72.28716099 211.46816027 70.26171875 210.62109375 C69.05652588 210.101521 67.85133301 209.58194824 66.60961914 209.04663086 C62.86459752 208.02316935 61.68820667 208.3276151 58.3515625 210.15625 C57.19785156 210.67960938 56.04414063 211.20296875 54.85546875 211.7421875 C54.22165283 212.03134033 53.58783691 212.32049316 52.93481445 212.6184082 C24.94450845 225.26257326 -5.04132291 226.77579866 -34.0390625 216.6328125 C-39.04562499 214.5846733 -43.73112942 212.08776579 -48.4296875 209.4140625 C-54.21934791 207.15159812 -58.97044925 209.10416498 -64.40039062 211.42578125 C-65.7034494 212.0017043 -67.00551752 212.5798734 -68.30664062 213.16015625 C-73.14521565 215.22185285 -73.14521565 215.22185285 -76.10546875 214.8359375 C-76.61464844 214.61164063 -77.12382812 214.38734375 -77.6484375 214.15625 C-77.61328125 212.359375 -77.61328125 212.359375 -76.6484375 210.15625 C-74.14184006 208.86595899 -71.84053729 207.85805343 -69.2109375 206.90625 C-68.16969727 206.5040625 -68.16969727 206.5040625 -67.10742188 206.09375 C-62.00171397 204.15625 -62.00171397 204.15625 -59.6484375 204.15625 C-62.77117146 200.9294249 -66.02425789 197.93298255 -69.3984375 194.96875 C-89.19422772 177.13496858 -100.81312411 155.26135236 -105.6484375 129.15625 C-105.79925781 128.34414063 -105.95007813 127.53203125 -106.10546875 126.6953125 C-106.42058858 124.50207848 -106.56405536 122.37128111 -106.6484375 120.15625 C-106.7 118.95226562 -106.7515625 117.74828125 -106.8046875 116.5078125 C-107.47395707 93.04172167 -101.76219841 69.82689136 -88.6484375 50.15625 C-89.26364258 49.77815186 -89.87884766 49.40005371 -90.51269531 49.01049805 C-93.30918138 47.29025299 -96.10382339 45.56703432 -98.8984375 43.84375 C-99.86652344 43.24884766 -100.83460938 42.65394531 -101.83203125 42.04101562 C-102.76660156 41.46416016 -103.70117188 40.88730469 -104.6640625 40.29296875 C-105.52290039 39.76405029 -106.38173828 39.23513184 -107.26660156 38.69018555 C-109.47591998 37.26735369 -111.56940188 35.76182103 -113.6484375 34.15625 C-113.3184375 32.83625 -112.9884375 31.51625 -112.6484375 30.15625 C-108.89277471 30.72149872 -106.34628504 31.72852635 -103.1796875 33.80859375 C-102.36113281 34.33775391 -101.54257813 34.86691406 -100.69921875 35.41210938 C-99.85746094 35.96705078 -99.01570312 36.52199219 -98.1484375 37.09375 C-96.47386538 38.19004338 -94.79685184 39.28261836 -93.1171875 40.37109375 C-92.37919922 40.85698975 -91.64121094 41.34288574 -90.88085938 41.84350586 C-88.53868196 43.2207902 -86.19193318 44.2102687 -83.6484375 45.15625 C-83.27912109 44.31320313 -83.27912109 44.31320313 -82.90234375 43.453125 C-72.33150489 24.08971925 -47.66575722 10.59353973 -27.29101562 4.44482422 C-22.44943526 3.11390033 -17.58458198 2.07054657 -12.6484375 1.15625 C-11.83632812 1.00542969 -11.02421875 0.85460937 -10.1875 0.69921875 C-6.80017374 0.21253394 -3.41754539 0.14636169 0 0 Z " fill="#FEFEFE" transform="translate(253.6484375,136.84375)"/>
<path d="M0 0 C30.51691661 -0.87036413 59.57199024 9.55168976 81.95703125 30.45703125 C84.86639228 33.26980216 87.70855218 36.08996429 90.3515625 39.15625 C90.3515625 39.81625 90.3515625 40.47625 90.3515625 41.15625 C92.87421494 39.59662694 95.39468572 38.03364923 97.9140625 36.46875 C98.97077148 35.81616211 98.97077148 35.81616211 100.04882812 35.15039062 C103.53571849 32.98112703 106.877178 30.7719314 110.12890625 28.26171875 C113.3515625 26.15625 113.3515625 26.15625 115.55297852 26.5246582 C116.14651123 26.7330835 116.74004395 26.94150879 117.3515625 27.15625 C117.01905021 30.02519897 116.54584266 30.99071336 114.31030273 32.89550781 C112.99848022 33.74387207 112.99848022 33.74387207 111.66015625 34.609375 C110.71591797 35.228125 109.77167969 35.846875 108.79882812 36.484375 C107.80560547 37.11859375 106.81238281 37.7528125 105.7890625 38.40625 C104.79197266 39.0559375 103.79488281 39.705625 102.76757812 40.375 C100.30214269 41.97930248 97.83017837 43.57241731 95.3515625 45.15625 C95.81699463 45.93299072 96.28242676 46.70973145 96.76196289 47.51000977 C113.79475428 76.08090013 121.4207535 106.16749855 113.3515625 139.15625 C106.50200498 164.88266863 91.50521534 188.03997099 69.3515625 203.15625 C72.19264638 205.05030592 74.69214501 206.16486292 77.859375 207.3984375 C78.92800781 207.82511719 79.99664062 208.25179687 81.09765625 208.69140625 C83.35435412 209.5862587 85.61482356 210.4716564 87.87890625 211.34765625 C88.94496094 211.77691406 90.01101563 212.20617187 91.109375 212.6484375 C92.0905127 213.03370605 93.07165039 213.41897461 94.08251953 213.81591797 C96.3515625 215.15625 96.3515625 215.15625 97.17919922 217.31298828 C97.26451904 218.22540283 97.26451904 218.22540283 97.3515625 219.15625 C94.45820297 220.37193599 93.2659503 220.12834503 90.22290039 219.13647461 C89.01883545 218.61577393 87.81477051 218.09507324 86.57421875 217.55859375 C85.2429607 216.99905822 83.91157656 216.43982262 82.58007812 215.88085938 C80.49293439 214.98882727 78.40839095 214.09128731 76.32641602 213.18725586 C74.31082023 212.31696612 72.28716099 211.46816027 70.26171875 210.62109375 C69.05652588 210.101521 67.85133301 209.58194824 66.60961914 209.04663086 C62.86459752 208.02316935 61.68820667 208.3276151 58.3515625 210.15625 C57.19785156 210.67960938 56.04414063 211.20296875 54.85546875 211.7421875 C54.22165283 212.03134033 53.58783691 212.32049316 52.93481445 212.6184082 C24.94450845 225.26257326 -5.04132291 226.77579866 -34.0390625 216.6328125 C-39.04562499 214.5846733 -43.73112942 212.08776579 -48.4296875 209.4140625 C-54.21934791 207.15159812 -58.97044925 209.10416498 -64.40039062 211.42578125 C-65.7034494 212.0017043 -67.00551752 212.5798734 -68.30664062 213.16015625 C-73.14521565 215.22185285 -73.14521565 215.22185285 -76.10546875 214.8359375 C-76.61464844 214.61164063 -77.12382812 214.38734375 -77.6484375 214.15625 C-77.61328125 212.359375 -77.61328125 212.359375 -76.6484375 210.15625 C-74.14184006 208.86595899 -71.84053729 207.85805343 -69.2109375 206.90625 C-68.16969727 206.5040625 -68.16969727 206.5040625 -67.10742188 206.09375 C-62.00171397 204.15625 -62.00171397 204.15625 -59.6484375 204.15625 C-62.77117146 200.9294249 -66.02425789 197.93298255 -69.3984375 194.96875 C-89.19422772 177.13496858 -100.81312411 155.26135236 -105.6484375 129.15625 C-105.79925781 128.34414063 -105.95007813 127.53203125 -106.10546875 126.6953125 C-106.42058858 124.50207848 -106.56405536 122.37128111 -106.6484375 120.15625 C-106.7 118.95226562 -106.7515625 117.74828125 -106.8046875 116.5078125 C-107.47395707 93.04172167 -101.76219841 69.82689136 -88.6484375 50.15625 C-89.26364258 49.77815186 -89.87884766 49.40005371 -90.51269531 49.01049805 C-93.30918138 47.29025299 -96.10382339 45.56703432 -98.8984375 43.84375 C-99.86652344 43.24884766 -100.83460938 42.65394531 -101.83203125 42.04101562 C-102.76660156 41.46416016 -103.70117188 40.88730469 -104.6640625 40.29296875 C-105.52290039 39.76405029 -106.38173828 39.23513184 -107.26660156 38.69018555 C-109.47591998 37.26735369 -111.56940188 35.76182103 -113.6484375 34.15625 C-113.3184375 32.83625 -112.9884375 31.51625 -112.6484375 30.15625 C-108.89277471 30.72149872 -106.34628504 31.72852635 -103.1796875 33.80859375 C-102.36113281 34.33775391 -101.54257813 34.86691406 -100.69921875 35.41210938 C-99.85746094 35.96705078 -99.01570312 36.52199219 -98.1484375 37.09375 C-96.47386538 38.19004338 -94.79685184 39.28261836 -93.1171875 40.37109375 C-92.37919922 40.85698975 -91.64121094 41.34288574 -90.88085938 41.84350586 C-88.53868196 43.2207902 -86.19193318 44.2102687 -83.6484375 45.15625 C-83.27912109 44.31320313 -83.27912109 44.31320313 -82.90234375 43.453125 C-72.33150489 24.08971925 -47.66575722 10.59353973 -27.29101562 4.44482422 C-22.44943526 3.11390033 -17.58458198 2.07054657 -12.6484375 1.15625 C-11.83632812 1.00542969 -11.02421875 0.85460937 -10.1875 0.69921875 C-6.80017374 0.21253394 -3.41754539 0.14636169 0 0 Z M-75.6484375 41.15625 C-80.14371643 46.04502304 -80.14371643 46.04502304 -81.6484375 52.15625 C-83.1334375 52.65125 -83.1334375 52.65125 -84.6484375 53.15625 C-86.60141877 55.78610304 -88.01578618 58.75289609 -89.5234375 61.65625 C-89.96816406 62.50977051 -90.41289062 63.36329102 -90.87109375 64.24267578 C-94.93272432 72.29298241 -97.68130121 80.37317889 -99.6484375 89.15625 C-99.89207031 90.2390625 -100.13570312 91.321875 -100.38671875 92.4375 C-105.65010097 120.7953144 -98.39944304 149.76447915 -82.453125 173.51171875 C-74.31483562 184.78572895 -64.31793065 194.5701429 -52.6484375 202.15625 C-51.9884375 202.15625 -51.3284375 202.15625 -50.6484375 202.15625 C-50.6484375 202.81625 -50.6484375 203.47625 -50.6484375 204.15625 C-50.06578125 204.38699219 -49.483125 204.61773437 -48.8828125 204.85546875 C-48.06296875 205.18160156 -47.243125 205.50773438 -46.3984375 205.84375 C-45.47804687 206.20855469 -44.55765625 206.57335937 -43.609375 206.94921875 C-41.685123 207.73364338 -39.77246142 208.54735481 -37.875 209.39453125 C-11.74902561 220.95438019 16.16636445 220.82664253 42.91015625 211.49609375 C47.56089954 209.68541844 51.98587833 207.57021654 56.3515625 205.15625 C56.3515625 204.49625 56.3515625 203.83625 56.3515625 203.15625 C57.6715625 203.15625 58.9915625 203.15625 60.3515625 203.15625 C60.3515625 202.49625 60.3515625 201.83625 60.3515625 201.15625 C61.43050781 201.02863281 61.43050781 201.02863281 62.53125 200.8984375 C75.21632169 197.56026074 87.65269518 180.84524168 94.3515625 170.15625 C94.93550781 169.25519531 95.51945313 168.35414063 96.12109375 167.42578125 C110.46074537 144.27614759 115.10445523 115.484078 109.32421875 88.921875 C105.72214907 74.97651288 100.82928305 60.93820713 91.515625 49.70703125 C90.3515625 48.15625 90.3515625 48.15625 89.3515625 45.15625 C87.72335873 43.45198827 86.05058233 41.78992291 84.3515625 40.15625 C83.57039062 39.31707031 82.78921875 38.47789062 81.984375 37.61328125 C62.65735205 17.2326044 35.55628236 5.63160088 7.54150391 4.87304688 C-24.25043463 4.49131457 -54.37348636 17.40349331 -75.6484375 41.15625 Z " fill="#020202" transform="translate(253.6484375,136.84375)"/>
<path d="M0 0 C4.06707405 1.4926581 6.46901462 3.22921477 8.9375 6.8125 C10.36262082 11.08786245 10.88802408 14.56671368 9.30859375 18.89453125 C7.09500746 23.29391824 4.78612579 25.40462474 0 27 C-5.2075322 27.55794988 -8.66375637 26.98719005 -13 24 C-15.77699985 20.6727587 -16.89818513 17.72543097 -17.5 13.4375 C-16.70455255 7.96879878 -14.34664012 5.13716276 -10.1875 1.625 C-6.33997539 -0.33648313 -4.27096387 -0.59943353 0 0 Z " fill="#010101" transform="translate(230,205)"/>
<path d="M0 0 C4.32260942 0.51660454 7.13812897 3.27406381 10.375 5.9375 C11.6271478 6.94100019 12.88110476 7.94224648 14.13671875 8.94140625 C15.09650635 9.70541748 15.09650635 9.70541748 16.07568359 10.48486328 C31.15800955 23.11597361 31.15800955 23.11597361 49.50390625 27.6015625 C62.02998672 24.5827575 72.30585037 15.6733144 81.89453125 7.546875 C82.77496094 6.80953125 83.65539062 6.0721875 84.5625 5.3125 C85.32691406 4.64863281 86.09132813 3.98476563 86.87890625 3.30078125 C89 2 89 2 91.27734375 2.29296875 C91.84582031 2.52628906 92.41429687 2.75960938 93 3 C92.43365727 6.34510201 91.55592554 7.76176311 88.9296875 9.8828125 C87.96687866 10.66712646 87.96687866 10.66712646 86.98461914 11.46728516 C86.28844482 12.01433105 85.59227051 12.56137695 84.875 13.125 C84.16013428 13.69395996 83.44526855 14.26291992 82.70874023 14.84912109 C58.36918862 33.97286335 58.36918862 33.97286335 45.3515625 33.32421875 C27.57308718 30.87303361 12.25603972 15.06156747 -1 4 C-0.67 2.68 -0.34 1.36 0 0 Z " fill="#030303" transform="translate(212,281)"/>
<path d="M0 0 C4.33729795 2.25205855 7.13397371 4.4386024 9 9 C9.53635899 13.82723092 9.52017901 15.97890786 7.3125 20.3125 C3.73770791 24.4669881 1.56223989 25.82641779 -3.9375 26.4375 C-8.2150513 26.25994127 -10.73416458 24.81013746 -14 22 C-16.35125704 19.10011632 -16.9558484 17.34059803 -17.4375 13.625 C-16.91230003 9.27334313 -15.80821549 6.36464209 -13 3 C-8.68266618 0.0258367 -5.18923924 -0.6486549 0 0 Z " fill="#010101" transform="translate(293,208)"/>
</svg>
